<svg width="272" height="585" viewBox="0 0 272 585" fill="none" xmlns="http://www.w3.org/2000/svg">
<path d="M134.715 425.699C135.344 425.701 135.973 425.701 136.603 425.699Z" fill="white"/>
<path d="M271.304 234.066V232.808L271.288 229.048L271.273 226.554L271.252 224.071L271.226 221.598L271.21 220.366L271.174 217.911L271.132 215.47L271.085 213.039L271.033 210.623L270.975 208.219L270.865 204.046L270.719 199.328L270.552 194.667L270.364 190.063L270.129 184.956L269.899 180.483L269.617 175.527L269.346 171.19L269.017 166.391L268.664 161.677L268.246 156.539L267.847 152.008L267.377 147.078L266.881 142.261L266.306 137.091L265.703 132.056L265.014 126.719L264.293 121.544L263.478 116.126L263.413 115.716L263.283 114.901L263.152 114.092L262.956 112.885L262.826 112.086L262.695 111.293L262.63 110.898L262.494 110.11L262.358 109.326L262.222 108.548L262.087 107.775L261.883 106.624L261.747 105.861L261.611 105.104L261.4 103.976L261.259 103.229L261.118 102.488L260.906 101.383L260.765 100.652L260.624 99.9262L260.483 99.2056L260.264 98.1324L260.118 97.4221L259.972 96.7171L259.752 95.6674L259.606 94.9729L259.46 94.2835L259.241 93.2573L259.167 92.9179L259.092 92.5784L258.94 91.9048L258.713 90.9021L258.562 90.2389L258.41 89.5808L258.183 88.6017L258.032 87.9541L257.88 87.3118L257.653 86.3561L257.577 86.0401L257.499 85.7242L257.342 85.0975L257.107 84.1653L256.951 83.5491L256.794 82.9381L256.559 82.0294L256.402 81.4288L256.246 80.8335L256.011 79.9483L255.854 79.3634L255.697 78.7837L255.616 78.4939L255.454 77.9194L255.292 77.3502L255.05 76.5042L254.888 75.9454L254.726 75.3918L254.483 74.5693L254.321 74.0262L254.078 73.2194L253.916 72.6867L253.755 72.1592L253.512 71.3759L253.35 70.8589L253.099 70.0912L252.932 69.5846L252.765 69.0833L252.514 68.3391L252.347 67.8482L252.096 67.1197L251.929 66.6393L251.762 66.164L251.512 65.459L251.344 64.9942L251.094 64.3049L250.927 63.8505L250.676 63.1769L250.509 62.733L250.258 62.0749L250.175 61.8582L250.088 61.6415L249.916 61.2133L249.658 60.5788L249.485 60.161L249.227 59.5421L249.054 59.1348L248.796 58.5316L248.624 58.1347L248.365 57.5472L248.193 57.1608L247.934 56.5889L247.762 56.2129L247.59 55.8421L247.331 55.2938L247.159 54.9334L246.9 54.4008L246.728 54.0509L246.469 53.5339L246.297 53.1944L246.039 52.6931L245.866 52.3641L245.694 52.0403L245.605 51.8784L245.428 51.5598L245.067 50.9175L244.827 50.4945L244.459 49.86L244.091 49.2333L243.84 48.8155L243.464 48.1967L243.208 47.7841L242.696 46.9694L242.043 45.9641L241.378 44.9719L241.244 44.7761L240.701 43.9927L240.43 43.6063L240.015 43.0266L239.738 42.6454L239.315 42.0735L238.892 41.5095L238.605 41.1335L238.03 40.3919L237.884 40.2065L237.299 39.4754L237.15 39.2926L236.406 38.3918L235.649 37.504L235.497 37.3291L234.881 36.6293L234.573 36.2846L234.103 35.7676L233.633 35.2584L233.314 34.919L232.677 34.2505L232.353 33.9163L231.706 33.2583L231.541 33.0938L230.719 32.2843L230.554 32.125L229.719 31.3286L229.552 31.172L228.873 30.5453L228.533 30.2372L227.844 29.6209L227.327 29.1666L226.802 28.7122L226.277 28.2657L225.922 27.9681L225.034 27.2369L224.854 27.0907L223.773 26.229L222.677 25.383L222.494 25.2446L221.567 24.5527L221.196 24.2811L220.444 23.738L219.88 23.3385L219.308 22.939L218.546 22.4168L218.159 22.1556L217 21.388L215.629 20.5106L214.438 19.7743L214.041 19.534L213.036 18.9335L212.433 18.581L211.822 18.2285L210.804 17.654L210.391 17.4242L209.153 16.7505L208.945 16.6383L207.482 15.8706L207.273 15.7635L206.004 15.1212L205.581 14.9123L204.511 14.3901L203.868 14.0846L203.002 13.6772L201.918 13.1811L201.479 12.9827L199.944 12.3064L198.39 11.6484L197.946 11.4656L196.824 11.0086L195.925 10.6535L195.244 10.3872L193.881 9.87016L193.421 9.69782L191.813 9.11293L190.186 8.5463L189.489 8.3113L188.314 7.91963L187.374 7.61673L186.661 7.38956L185.235 6.95089L184.995 6.87778L183.313 6.38427L182.833 6.24849L181.376 5.84115L180.647 5.64531L179.666 5.3842L178.193 5.00819L177.945 4.94552L176.208 4.52513L175.96 4.46768L174.206 4.06557L173.454 3.90106L172.441 3.68173L171.174 3.42061L170.662 3.31616L168.871 2.96888L168.615 2.92188L167.064 2.63988L166.289 2.50671L165.244 2.32915L163.939 2.12026L163.675 2.07848L161.829 1.80431L161.565 1.76775L159.967 1.54841L159.168 1.44658L158.092 1.3108L156.748 1.15413L156.476 1.1228L154.575 0.921737L152.933 0.765068L151.006 0.600565L149.345 0.47523L147.389 0.347283L145.702 0.253282L143.723 0.161892L142.015 0.0992238L140.295 0.0522231L138.274 0.0156669H137.984L137.694 0.00783347H137.404L137.114 0.00261117H136.824L136.532 0H134.485L134.195 0.00261117H133.905L133.615 0.00783347H133.325L133.036 0.0156669L131.015 0.0522231L129.294 0.0992238L127.586 0.161892L125.607 0.253282L123.92 0.347283L121.964 0.47523L120.304 0.600565L118.377 0.765068L116.734 0.921737L114.833 1.1228L114.562 1.15413L113.217 1.3108L112.141 1.44658L111.342 1.54841L109.744 1.76775L109.48 1.80431L107.634 2.07848L107.371 2.12026L106.065 2.32915L105.021 2.50671L104.245 2.63988L102.694 2.92188L102.438 2.96888L100.647 3.31616L100.135 3.42061L98.8687 3.68173L97.8556 3.90106L97.1036 4.06557L95.3489 4.46768L95.1008 4.52513L93.3644 4.94552L93.1163 5.00819L91.6437 5.3842L90.6619 5.64531L89.9333 5.84115L88.4763 6.24849L87.9959 6.38427L86.3143 6.87778L86.0741 6.95089L84.6484 7.38956L83.9355 7.61673L82.9955 7.91963L81.8205 8.3113L81.1233 8.5463L79.4966 9.11293L77.8881 9.69782L77.4285 9.87016L76.0655 10.3872L75.384 10.6535L74.4858 11.0086L73.363 11.4656L72.9191 11.6484L71.3654 12.3064L69.8301 12.9827L69.3914 13.1811L68.3078 13.6772L67.4409 14.0846L66.7985 14.3901L65.728 14.9123L65.3049 15.1212L63.8244 15.8706L62.3622 16.6383L62.1533 16.7505L60.9156 17.4242L60.503 17.654L59.4847 18.2285L58.8737 18.581L58.2705 18.9335L57.2652 19.534L56.8683 19.7743L55.6776 20.5106L54.3068 21.388L53.1474 22.1556L52.761 22.4168L51.9985 22.939L51.4267 23.3385L50.8627 23.738L50.1106 24.2811L49.7399 24.5527L48.8129 25.2446L48.6301 25.383L47.5334 26.229L46.4524 27.0907L46.2723 27.2369L45.3845 27.9681L45.0293 28.2657L44.5045 28.7122L43.9797 29.1666L43.4626 29.6209L42.7733 30.2372L42.4339 30.5453L41.755 31.172L41.5878 31.3286L40.7523 32.125L40.5878 32.2843L39.7653 33.0938L39.6008 33.2583L38.9532 33.9163L38.6294 34.2505L37.9923 34.919L37.6737 35.2584L37.2037 35.7676L36.7337 36.2846L36.4256 36.6293L35.8094 37.3291L35.6579 37.504L34.9007 38.3918L34.1565 39.2926L34.0077 39.4754L33.4228 40.2065L33.2765 40.3919L32.7021 41.1335L32.4149 41.5095L31.9919 42.0735L31.5688 42.6454L31.2921 43.0266L30.8769 43.6063L30.6053 43.9927L30.0622 44.7761L29.929 44.9719L29.2632 45.9641L28.6104 46.9694L28.0986 47.7841L27.8427 48.1967L27.4667 48.8155L27.2161 49.2333L26.8479 49.86L26.4797 50.4945L26.2395 50.9175L25.8791 51.5598L25.7016 51.8784L25.6128 52.0403L25.4405 52.3641L25.2681 52.6931L25.0096 53.1944L24.8373 53.5339L24.5788 54.0509L24.4065 54.4008L24.1479 54.9334L23.9756 55.2938L23.7171 55.8421L23.5448 56.2129L23.3724 56.5889L23.1139 57.1608L22.9416 57.5472L22.6831 58.1347L22.5108 58.5316L22.2523 59.1348L22.0799 59.5421L21.8214 60.161L21.6491 60.5788L21.3906 61.2133L21.2182 61.6415L21.1321 61.8582L21.0485 62.0749L20.7978 62.733L20.6307 63.1769L20.3801 63.8505L20.2129 64.3049L19.9623 64.9942L19.7952 65.459L19.5445 66.164L19.3774 66.6393L19.2103 67.1197L18.9596 67.8482L18.7925 68.3391L18.5418 69.0833L18.3747 69.5846L18.2076 70.0912L17.9569 70.8589L17.795 71.3759L17.5522 72.1592L17.3903 72.6867L17.2284 73.2194L16.9856 74.0262L16.8237 74.5693L16.5808 75.3918L16.4189 75.9454L16.257 76.5042L16.0142 77.3502L15.8523 77.9194L15.6904 78.4939L15.6095 78.7837L15.4528 79.3634L15.2961 79.9483L15.0611 80.8335L14.9045 81.4288L14.7478 82.0294L14.5128 82.9381L14.3561 83.5491L14.1995 84.1653L13.9644 85.0975L13.8078 85.7242L13.7294 86.0401L13.6537 86.3561L13.4266 87.3118L13.2751 87.9541L13.1237 88.6017L12.8965 89.5808L12.745 90.2389L12.5936 90.9021L12.3664 91.9048L12.215 92.5784L12.1393 92.9179L12.0661 93.2573L11.8468 94.2835L11.7006 94.9729L11.5544 95.6674L11.335 96.7171L11.1888 97.4221L11.0426 98.1324L10.8232 99.2056L10.6822 99.9262L10.5412 100.652L10.4002 101.383L10.1887 102.488L10.0477 103.229L9.90672 103.976L9.69521 105.104L9.55943 105.861L9.42365 106.624L9.21998 107.775L9.0842 108.548L8.94842 109.326L8.81264 110.11L8.67686 110.898L8.61158 111.293L8.48103 112.086L8.35047 112.885L8.15463 114.092L8.02407 114.901L7.89352 115.716L7.82824 116.126L7.01356 121.544L6.23282 127.158L5.60092 132.056L4.99775 137.091L4.42329 142.261L3.92717 147.078L3.45717 152.008L3.05766 156.539L2.63988 161.677L2.28737 166.391L1.95837 171.19L1.68681 175.527L1.4048 180.483L1.17502 184.956L0.940015 190.063L0.752012 194.667L0.584898 199.328L0.438674 204.046L0.329005 208.219L0.27156 210.623L0.219337 213.039L0.172336 215.47L0.130558 217.911L0.0940015 220.366L0.0783346 221.598L0.0522231 224.071L0.0313338 226.554L0.0156669 229.048L0.00522231 231.552V232.808L0 234.066V237.858L0.0156669 241.673L0.0313338 244.229L0.0522231 246.796L0.0783346 249.373L0.109668 251.955L0.146225 254.548L0.188003 257.149L0.235004 259.758L0.287227 262.371L0.344672 264.993L0.40734 267.622L0.47523 270.257L0.548342 272.899L0.626677 275.547L0.710234 278.2L0.799013 280.858L0.893014 283.522L0.992238 286.19L1.09668 288.861L1.20635 291.538L1.37869 295.559L1.4988 298.243L1.62414 300.93L1.7547 303.62L1.89048 306.312L2.03148 309.006L2.1777 311.701L2.32915 314.401L2.56415 318.451L2.72604 321.151L2.89316 323.851L3.06549 326.551L3.24305 329.251L3.51722 333.301L3.70523 336.001L3.89845 338.701L4.0969 341.4L4.4024 345.45L4.6113 348.15L4.82541 350.845L5.15442 354.887L5.37898 357.579L5.60876 360.269L5.96126 364.3L6.20149 366.985L6.44694 369.666L6.82294 373.682L7.07884 376.356L7.47051 380.359L7.73685 383.022L8.14419 387.012L8.42097 389.665L8.84398 393.639L9.1312 396.282L9.56988 400.238L9.86755 402.87L10.3219 406.807L10.7841 410.734L11.0974 413.343L11.5752 417.247L12.0609 421.137L12.3899 423.722L12.8913 427.589L13.4004 431.441L13.9174 435.277L14.4423 439.097L14.975 442.901L15.3353 445.426L15.8836 449.202L16.4398 452.959L17.0038 456.699L17.5757 460.419L18.1554 464.122L18.9387 469.028L19.534 472.687L20.1372 476.321L20.7482 479.94L21.3671 483.536L22.2026 488.296L22.8371 491.845L23.4795 495.37L24.3464 500.033L25.0044 503.504L25.8922 508.094L26.5659 511.509L27.4746 516.027L28.1639 519.387L29.0935 523.831L30.0335 528.234L30.9839 532.594L31.7046 535.83L32.676 540.107L33.4123 543.287L33.6578 544.339L34.65 548.522L35.6527 552.664L36.6658 556.753L37.4335 559.792L37.6894 560.797L38.9819 565.785L40.0264 569.717L40.5538 571.668L41.0813 573.603L41.8803 576.485L42.1466 577.438L43.2224 581.224L43.4914 582.162L44.3061 584.958H227.011L227.826 582.162L228.095 581.224L229.17 577.438L229.437 576.485L230.236 573.603L230.763 571.668L231.291 569.717L232.335 565.785L233.628 560.797L233.884 559.792L234.651 556.753L235.664 552.664L236.667 548.522L237.659 544.339L237.905 543.287L238.641 540.107L239.612 535.83L240.333 532.594L241.284 528.234L242.224 523.831L243.153 519.387L243.843 516.027L244.751 511.509L245.425 508.094L246.313 503.504L246.971 500.033L247.838 495.37L248.48 491.845L249.114 488.296L249.95 483.536L250.569 479.94L251.18 476.321L251.783 472.687L252.577 467.804L253.164 464.122L253.744 460.419L254.316 456.699L254.88 452.959L255.436 449.202L255.984 445.426L256.345 442.901L256.877 439.097L257.402 435.277L257.919 431.441L258.428 427.589L258.93 423.722L259.259 421.137L259.744 417.247L260.222 413.343L260.536 410.734L260.998 406.807L261.452 402.87L261.75 400.238L262.189 396.282L262.476 393.639L262.899 389.665L263.176 387.012L263.583 383.022L263.849 380.359L264.241 376.356L264.497 373.682L264.873 369.666L265.118 366.985L265.358 364.3L265.711 360.269L265.941 357.579L266.165 354.887L266.494 350.845L266.708 348.15L266.917 345.45L267.223 341.4L267.421 338.701L267.615 336.001L267.803 333.301L268.077 329.251L268.254 326.551L268.427 323.851L268.594 321.151L268.756 318.451L268.991 314.401L269.142 311.701L269.288 309.006L269.429 306.312L269.565 303.62L269.696 300.93L269.821 298.243L269.941 295.559L270.113 291.538L270.223 288.861L270.327 286.19L270.427 283.522L270.521 280.858L270.61 278.2L270.693 275.547L270.771 272.899L270.845 270.257L270.912 267.622L270.975 264.993L271.033 262.371L271.085 259.758L271.132 257.149L271.174 254.548L271.21 251.955L271.241 249.373L271.268 246.796L271.288 244.229L271.304 241.673L271.315 239.127V237.858L271.32 236.591V234.066H271.304ZM201.317 385.996C195.831 396.679 190.353 404.47 184.324 410.236C179.352 414.991 173.848 418.51 167.419 420.978C159.241 424.119 149.371 425.644 136.6 425.699H134.712C122.703 425.647 113.277 424.294 105.404 421.534C98.9105 419.255 93.2808 415.944 88.1682 411.332C81.6638 405.465 75.8331 397.358 69.9972 385.999C39.149 325.953 26.5789 229.533 37.9453 140.175C39.8096 125.526 42.9483 113.415 47.4551 103.383C50.9018 95.7118 55.3982 88.7166 61.3386 82.7448C67.5479 76.5016 74.8174 71.8955 82.9381 68.5219C94.0302 63.9132 107.54 61.2446 124.106 60.4273C131.795 60.0487 139.517 60.0487 147.206 60.4273C161.954 61.1532 174.271 63.3492 184.622 67.0701C192.536 69.9162 199.858 73.8565 206.271 79.319C212.976 85.0296 218.128 91.9204 222.118 99.7539C227.57 110.457 231.272 123.719 233.367 140.175C244.733 229.533 232.163 325.953 201.315 385.999L201.317 385.996Z" fill="white"/>
<path d="M198.03 46.0032C197.826 45.2721 197.448 44.5253 197.053 43.8725C196.1 42.298 194.575 40.4884 192.614 38.6136C188.405 34.5898 181.462 29.5816 171.913 25.7041C159.199 20.5392 146.42 19.2284 135.662 19.2284C125.735 19.2284 114.645 20.3434 103.511 24.1687C93.0249 27.7721 85.4944 32.7542 80.8308 36.7075C78.1179 39.0079 76.0185 41.2613 74.7025 43.2014C74.1776 43.9743 73.6554 44.8804 73.3656 45.7603C73.2324 46.1651 73.1384 46.5985 73.1384 47.0241C73.1384 47.3009 73.1775 47.5725 73.2768 47.831C73.3682 48.0764 73.5066 48.2958 73.6919 48.489C73.927 48.7344 74.2168 48.9224 74.5275 49.0661C75.0106 49.2906 75.585 49.4316 76.1934 49.5204C80.1754 50.1079 87.7843 48.7762 98.8139 47.5229C110.533 46.1912 121.703 45.4809 135.66 45.4809C146.339 45.4809 156.578 45.9066 167.552 46.9954C176.449 47.878 183.282 48.9303 188.329 49.4081C190.907 49.6536 193.032 49.7476 194.646 49.5805C195.348 49.5073 196.011 49.3794 196.57 49.1601C196.884 49.0373 197.186 48.8754 197.442 48.6639C197.643 48.4968 197.808 48.301 197.933 48.0764C198.069 47.8284 198.142 47.5594 198.171 47.28C198.213 46.857 198.145 46.4157 198.03 46.0058V46.0032ZM193.194 45.7708C193.16 46.0058 193.084 46.2304 192.962 46.434C192.844 46.6299 192.687 46.797 192.507 46.938C192.259 47.1338 191.964 47.2774 191.669 47.3845C191.1 47.5908 190.421 47.7004 189.708 47.7553C187.919 47.8963 185.52 47.7239 182.621 47.4106C177.853 46.8962 171.652 45.9875 163.701 45.2433C154.11 44.3451 145.065 43.99 135.657 43.99C120.875 43.99 110.141 44.883 100.712 45.9666C90.8864 47.0973 84.0922 48.2435 80.6246 47.6352C80.1102 47.5438 79.6297 47.408 79.225 47.2017C78.9665 47.0685 78.7236 46.8988 78.533 46.6769C78.3816 46.5019 78.2693 46.3061 78.1962 46.0867C78.1205 45.8543 78.0917 45.6089 78.0996 45.3634C78.11 44.9822 78.2066 44.5905 78.332 44.2302C78.6114 43.4338 79.0996 42.6191 79.5853 41.9272C80.8204 40.1646 82.7814 38.1123 85.3037 36.0233C89.4894 32.5531 96.0356 28.2996 104.934 25.0957C115.752 21.2024 126.427 20.158 135.657 20.158C145.567 20.158 157.693 21.3696 169.827 26.4352C178.733 30.1535 185.188 34.9267 188.938 38.6763C190.51 40.2508 191.713 41.7496 192.434 43.0447C192.727 43.567 193.001 44.1649 193.131 44.7498C193.207 45.0814 193.241 45.4313 193.191 45.7682L193.194 45.7708Z" fill="#F5F5F5"/>
<path d="M75.3448 512.366C75.0654 510.131 75.8043 509.446 75.2612 507.987C74.0261 504.671 70.4567 503.007 67.7959 496.673C67.5975 496.203 65.7227 491.001 64.9602 488.769C61.5709 478.828 58.3096 468.843 55.1866 458.814C32.7177 387.255 19.6958 312.667 17.9908 237.654C17.915 232.957 18.4033 227.301 19.077 222.888C19.7611 218.407 20.7978 215.822 21.2547 213.216C21.3017 213.018 21.3487 212.817 21.3931 212.621C23.0251 205.276 24.1348 197.246 24.7902 188.079C25.3699 180.376 25.349 173.644 24.7249 167.495C24.5186 165.589 24.2628 163.516 23.8841 161.377C23.6987 158.737 22.7848 156.029 22.5681 151.502C22.354 147.011 22.9311 141.334 23.5107 136.649C24.3385 131.479 25.2707 126.33 26.3308 121.202C28.6286 110.337 31.5139 99.4823 35.5534 89.1395C36.7441 86.1811 37.9844 83.2305 39.4675 80.4078C40.6295 78.3372 41.9298 76.6869 43.2093 75.0889C45.8936 71.7362 48.4055 70.5664 48.006 69.2216C47.7814 68.4644 46.4576 68.1981 44.5305 68.6341C42.6035 69.0702 41.1595 70.1042 40.8932 70.4515C40.6269 70.8014 41.0629 71.8171 40.6712 73.1123C40.3422 74.2011 39.209 76.1986 38.7103 77.1935C37.7807 78.7863 36.9791 80.4444 36.1957 82.1103C29.4798 97.4012 24.7693 116.027 21.602 136.318C21.5968 136.357 21.5889 136.401 21.5837 136.443C21.5498 136.655 21.5184 136.864 21.4845 137.075C20.8239 140.919 18.5208 148.94 17.7244 152.201C17.2231 154.254 14.826 161.061 14.3456 162.596C10.4498 174.287 9.43924 187.499 11.1704 204.174C11.442 206.508 11.7867 208.78 12.1914 210.96C12.1966 210.984 12.2018 211.01 12.2071 211.036C12.3037 211.55 12.4029 212.06 12.5047 212.561C12.6431 213.208 12.7893 213.887 12.9512 214.59C13.4996 217.211 14.1524 220.402 14.3273 221.697C14.813 225.259 16.2465 234.442 16.3301 237.897V237.9C17.0038 263.773 18.8838 288.256 21.1633 308.395C27.7382 367.175 41.6374 424.926 60.0773 481.079C61.9078 486.656 63.6938 492.249 65.7044 497.764C68.0492 504.198 74.5588 519.933 77.3867 518.588C78.5251 518.045 75.6006 514.462 75.3369 512.368L75.3448 512.366ZM16.5076 163.145C16.5807 162.939 16.6565 162.722 16.7348 162.505C17.2884 161.014 18.4451 158.356 19.5992 158.497C21.1999 158.693 22.1059 164.466 22.1059 164.466L22.1242 164.435C22.2783 165.55 22.4062 166.652 22.5237 167.73C23.1347 173.741 23.153 180.345 22.5812 187.919C22.0172 195.834 21.1085 202.879 19.8186 209.352C19.7951 209.461 18.4425 215.6 16.8445 215.629C15.5311 215.653 14.7007 212.154 14.437 210.861C14.014 208.642 13.6589 206.315 13.3821 203.931C11.677 187.515 12.6718 174.55 16.5076 163.142V163.145Z" fill="#F5F5F5"/>
<path d="M193.925 518.586C196.753 519.933 203.265 504.195 205.608 497.762C207.616 492.249 209.402 486.654 211.235 481.076C229.675 424.923 243.571 367.173 250.149 308.393C252.428 288.253 254.308 263.773 254.982 237.897V237.894C255.065 234.44 256.499 225.254 256.985 221.695C257.162 220.4 257.812 217.209 258.361 214.587C258.523 213.885 258.671 213.206 258.807 212.558C258.912 212.057 259.008 211.548 259.105 211.033C259.11 211.01 259.115 210.981 259.121 210.958C259.528 208.777 259.87 206.506 260.141 204.171C261.873 187.496 260.862 174.284 256.966 162.594C256.483 161.059 254.089 154.251 253.588 152.199C252.791 148.94 250.488 140.916 249.827 137.072C249.796 136.861 249.762 136.652 249.728 136.441C249.723 136.399 249.715 136.354 249.71 136.315C246.543 116.027 241.829 97.3986 235.116 82.1103C234.333 80.4444 233.531 78.7889 232.602 77.1935C232.103 76.196 230.97 74.2011 230.641 73.1123C230.249 71.8171 230.685 70.8014 230.419 70.4515C230.152 70.1016 228.706 69.0676 226.781 68.6341C224.854 68.1981 223.531 68.4644 223.306 69.2216C222.906 70.5664 225.418 71.7362 228.103 75.0889C229.382 76.6869 230.682 78.3372 231.844 80.4078C233.328 83.2305 234.568 86.1811 235.759 89.1395C239.801 99.4823 242.686 110.337 244.981 121.202C246.041 126.33 246.973 131.482 247.801 136.649C248.381 141.331 248.958 147.008 248.744 151.502C248.527 156.029 247.616 158.737 247.428 161.377C247.049 163.516 246.793 165.589 246.587 167.495C245.963 173.644 245.942 180.376 246.522 188.079C247.177 197.246 248.287 205.276 249.919 212.621C249.963 212.817 250.01 213.018 250.057 213.214C250.517 215.82 251.553 218.405 252.235 222.885C252.909 227.301 253.397 232.954 253.321 237.651C251.616 312.665 238.594 387.25 216.125 458.811C213.005 468.84 209.741 478.823 206.352 488.766C205.592 490.999 203.714 496.2 203.516 496.67C200.855 503.005 197.286 504.668 196.051 507.984C195.508 509.441 196.249 510.125 195.967 512.363C195.703 514.457 192.782 518.042 193.917 518.583L193.925 518.586ZM257.935 203.931C257.656 206.315 257.301 208.642 256.88 210.861C256.619 212.154 255.789 215.653 254.473 215.629C252.875 215.6 251.522 209.459 251.499 209.352C250.209 202.881 249.303 195.834 248.736 187.919C248.164 180.342 248.185 173.741 248.793 167.73C248.911 166.652 249.039 165.55 249.193 164.435L249.211 164.466C249.211 164.466 250.117 158.69 251.718 158.497C252.872 158.356 254.026 161.012 254.582 162.505C254.661 162.724 254.736 162.939 254.81 163.145C258.645 174.553 259.64 187.517 257.935 203.934V203.931Z" fill="#F5F5F5"/>
<path d="M147.496 375.975H125.562C124.771 445.823 119.974 515.567 111.201 584.867H161.857C153.084 515.567 148.287 445.823 147.496 375.975Z" fill="white"/>
<path d="M139.53 557.583C138.971 556.518 138.644 555.021 138.404 553.267C138.404 553.254 138.402 553.241 138.399 553.228C138.099 551.013 137.958 548.783 137.95 546.548C137.838 518.93 137.315 394.438 137.315 394.438C137.315 394.01 136.965 393.66 136.535 393.657C136.101 393.657 135.749 394.005 135.749 394.438C135.749 394.438 135.226 518.93 135.114 546.548C135.104 548.783 134.965 551.013 134.665 553.228C134.665 553.241 134.662 553.254 134.66 553.267C134.42 555.021 134.093 556.518 133.534 557.58C131.926 560.646 131.242 561.461 131.944 562.837C132.647 564.213 135.088 567.391 136.535 567.391C137.981 567.391 140.423 564.213 141.125 562.837C141.825 561.461 141.143 560.646 139.535 557.58L139.53 557.583Z" fill="#F5F5F5"/>
<path d="M145.308 373.559H127.552V375.909H145.308V373.559Z" fill="white"/>
<path d="M147.397 373.559C147.397 367.575 142.546 362.723 136.561 362.723C130.576 362.723 125.725 367.575 125.725 373.559H147.397Z" fill="white"/>
<path d="M257.935 203.931C257.656 206.315 257.301 208.642 256.88 210.861C256.619 212.154 255.789 215.653 254.473 215.629C252.875 215.6 251.522 209.459 251.499 209.352C250.209 202.881 249.303 195.834 248.736 187.919C248.164 180.342 248.185 173.741 248.793 167.73C248.911 166.652 249.039 165.55 249.193 164.435L249.211 164.466C249.211 164.466 250.117 158.69 251.718 158.497C252.872 158.356 254.026 161.012 254.582 162.505C254.661 162.724 254.736 162.939 254.81 163.145C258.645 174.553 259.64 187.517 257.935 203.934V203.931Z" fill="#F5F5F5"/>
<path d="M16.5076 163.145C16.5807 162.939 16.6565 162.722 16.7348 162.505C17.2884 161.014 18.4451 158.356 19.5992 158.497C21.1999 158.693 22.1059 164.466 22.1059 164.466L22.1242 164.435C22.2783 165.55 22.4062 166.652 22.5237 167.73C23.1347 173.741 23.153 180.345 22.5812 187.919C22.0172 195.834 21.1085 202.879 19.8186 209.352C19.7951 209.461 18.4425 215.6 16.8445 215.629C15.5311 215.653 14.7007 212.154 14.437 210.861C14.014 208.642 13.6589 206.315 13.3821 203.931C11.677 187.515 12.6718 174.55 16.5076 163.142V163.145Z" fill="#F5F5F5"/>
</svg>
